<?xml version="1.0" encoding="UTF-8" standalone="no"?> <svg xmlns="http://www.w3.org/2000/svg" xmlns:xlink="http://www.w3.org/1999/xlink" viewBox="0 0 64 64"><defs><style>.cls-1{fill:url(#linear-gradient);}</style><linearGradient id="linear-gradient" x1="3.4" y1="32" x2="60.6" y2="32" gradientUnits="userSpaceOnUse"><stop offset="0" stop-color="#5bb4f6"/><stop offset="0.61" stop-color="#2191e5"/><stop offset="1" stop-color="#007edb"/></linearGradient></defs><g id="Layer_42" data-name="Layer 42"><path class="cls-1" d="M32,3.4h0A28.59,28.59,0,0,0,3.4,32h0A28.59,28.59,0,0,0,32,60.6h0A28.59,28.59,0,0,0,60.6,32h0A28.59,28.59,0,0,0,32,3.4ZM20.66,18.68,29,10.39a4.27,4.27,0,0,1,6,0l8.28,8.37a4.21,4.21,0,0,1-3,7.18h0a4.17,4.17,0,0,1-3-1.25l-1.15-1.16,0,10.36a4.22,4.22,0,0,1-4.22,4.19h0a4.2,4.2,0,0,1-4.2-4.23l0-10.36L26.6,24.67a4.09,4.09,0,0,1-3,1.22,4.16,4.16,0,0,1-3-1.24,4.21,4.21,0,0,1-1.22-3A4.17,4.17,0,0,1,20.66,18.68ZM52.85,43A7.89,7.89,0,0,1,45,50.87H19A7.89,7.89,0,0,1,11.15,43V39.53a4.25,4.25,0,1,1,8.5,0v2.83h24.7V39.53a4.25,4.25,0,1,1,8.5,0Z"/></g></svg>