<?xml version="1.0" encoding="UTF-8" standalone="no"?> <svg xmlns="http://www.w3.org/2000/svg" xmlns:xlink="http://www.w3.org/1999/xlink" viewBox="0 0 64 64"><defs><style>.cls-1{fill:url(#linear-gradient);}.cls-2{fill:#fff;}</style><linearGradient id="linear-gradient" x1="3.25" y1="32" x2="60.75" y2="32" gradientUnits="userSpaceOnUse"><stop offset="0" stop-color="#5bb4f6"/><stop offset="0.61" stop-color="#2191e5"/><stop offset="1" stop-color="#007edb"/></linearGradient></defs><g id="Layer_33" data-name="Layer 33"><circle class="cls-1" cx="32" cy="32" r="28.75"/><path class="cls-2" d="M48.18,15.82a4.7,4.7,0,0,0-6.67,0L37,20.38h0L28.29,29a.67.67,0,0,0-.16.25h0l-3.61,9.22a.74.74,0,0,0,.17.8.71.71,0,0,0,.53.22.86.86,0,0,0,.27-.05l9.22-3.61h0a.67.67,0,0,0,.25-.16l8.66-8.66h0l4.56-4.56a4.7,4.7,0,0,0,0-6.67Zm-5.09,9.64-4.55-4.55,1.1-1.1,4.55,4.55Zm-8.66,8.66-4.55-4.55,7.6-7.6L42,26.52ZM29.1,30.91l4,4-6.55,2.56Zm18-9.48L45.25,23.3,40.7,18.75l1.87-1.87a3.22,3.22,0,0,1,4.55,4.55Z"/><path class="cls-2" d="M44.51,33.15a.75.75,0,0,0-.75.75V48.07H15.93V20.24H30.1a.75.75,0,0,0,0-1.5H15.18a.75.75,0,0,0-.75.75V48.82a.76.76,0,0,0,.75.75H44.51a.75.75,0,0,0,.75-.75V33.9A.74.74,0,0,0,44.51,33.15Z"/></g></svg>