<?xml version="1.0" encoding="iso-8859-1"?>
<!-- Uploaded to: SVG Repo, www.svgrepo.com, Generator: SVG Repo Mixer Tools -->
<svg fill="#000000" height="800px" width="800px" version="1.1" id="Layer_1" xmlns="http://www.w3.org/2000/svg" xmlns:xlink="http://www.w3.org/1999/xlink" 
	 viewBox="0 0 511.999 511.999" xml:space="preserve">
<g>
	<g>
		<g>
			<path d="M301.257,188.728h13.713c4.43,0,8.019-3.589,8.019-8.019c0-4.43-3.589-8.019-8.019-8.019h-13.713
				c-4.43,0-8.019,3.589-8.019,8.019C293.238,185.137,296.827,188.728,301.257,188.728z"/>
			<path d="M325.239,147.898c1.566,1.566,3.618,2.349,5.671,2.349c2.052,0,4.105-0.783,5.67-2.348
				c3.133-3.132,3.133-8.21,0.001-11.341l-9.696-9.697c-3.132-3.132-8.21-3.133-11.34-0.001c-3.133,3.132-3.133,8.21-0.001,11.341
				L325.239,147.898z"/>
			<path d="M369.391,134.307c4.429,0,8.019-3.589,8.019-8.019v-13.713c0-4.43-3.591-8.019-8.019-8.019
				c-4.43,0-8.019,3.589-8.019,8.019v13.713C361.372,130.718,364.961,134.307,369.391,134.307z"/>
			<circle cx="426.652" cy="361.981" r="7.981"/>
			<circle cx="458.576" cy="361.981" r="7.981"/>
			<path d="M413.543,213.518c-3.133-3.131-8.21-3.131-11.341,0c-3.132,3.133-3.132,8.21,0,11.341l9.696,9.696
				c1.566,1.565,3.619,2.348,5.671,2.348s4.105-0.783,5.671-2.348c3.132-3.133,3.132-8.21,0-11.341L413.543,213.518z"/>
			<path d="M466.557,84.903H45.443c-4.43,0-8.019,3.589-8.019,8.019v250.347c0,4.43,3.589,8.019,8.019,8.019h421.114
				c4.43,0,8.019-3.589,8.019-8.019V92.922C474.576,88.493,470.986,84.903,466.557,84.903z M53.462,100.942h366.074
				c-0.94,7.581-2.22,15.626-3.643,23.751c-1.464,0.311-2.858,1.03-3.996,2.167l-9.696,9.697c-3.132,3.132-3.132,8.21,0.001,11.341
				c1.565,1.565,3.618,2.348,5.67,2.348c0.898,0,1.794-0.159,2.652-0.46c-1.428,3.878-3.332,7.517-5.748,10.989
				c-6.98-12.342-20.221-20.697-35.384-20.697c-22.404,0-40.63,18.226-40.63,40.629c0,11.455,4.772,21.81,12.424,29.203
				c-1.414,1.464-2.698,2.947-3.881,4.451c-0.221-0.292-0.457-0.577-0.723-0.844c-3.133-3.131-8.21-3.131-11.341,0l-9.696,9.696
				c-3.132,3.133-3.132,8.21,0,11.341c1.566,1.565,3.619,2.348,5.671,2.348s4.105-0.783,5.671-2.348l1.262-1.262
				c-2.628,12.998,2.319,24.066,6.237,32.819c3.013,6.735,5.617,12.552,4.633,17.635c-0.169,0.875-0.554,1.789-2.207,2.537
				c-3.162,1.432-7.836,0.876-9.542-0.12c-12.167-7.105-25.59-22.151-39.898-44.721c-19.2-30.291-63.299-19.242-108.027-3.663
				c-1.078-1.431-2.294-2.766-3.648-3.979c-0.962-10.898-10.142-19.474-21.287-19.474c-0.282,0-0.563,0.005-0.845,0.017
				c-5.9-6.884-14.605-10.983-23.833-10.983c-11.8,0-22.361,6.52-27.719,16.674c-13.817,2.568-24.502,14.271-25.55,28.529
				c-8.373-3.687-16.233-8.494-23.001-14.098V100.942z M393.982,180.709c0,13.56-11.03,24.592-24.591,24.592
				S344.8,194.269,344.8,180.709s11.031-24.591,24.592-24.591C382.951,156.118,393.982,167.148,393.982,180.709z M163.346,244.517
				c3.453,2.163,5.514,5.881,5.514,9.945c0,6.464-5.259,11.722-11.722,11.722h-49.413c-8.446,0-15.318-6.871-15.318-15.317
				c0-8.373,6.811-15.244,15.182-15.315c3.453-0.03,6.499-2.266,7.561-5.55c2.051-6.34,7.908-10.598,14.578-10.598
				c5.469,0,10.564,2.951,13.295,7.701c1.927,3.35,5.967,4.849,9.613,3.568c0.569-0.201,1.165-0.302,1.771-0.302
				c2.939,0,5.331,2.391,5.331,5.33c0,0.274-0.021,0.549-0.062,0.816C159.196,239.674,160.637,242.819,163.346,244.517z
				 M458.538,335.25H53.462v-80.939c8.527,5.529,17.963,10.043,27.7,13.188c5.553,8.834,15.38,14.722,26.562,14.722h49.413
				c15.307,0,27.761-12.453,27.761-27.761c0-0.537-0.018-1.071-0.048-1.603c44.944-15.545,77.14-21.493,88.972-2.826
				c15.694,24.757,30.955,41.574,45.356,49.984c3.601,2.103,8.255,3.173,12.943,3.173c3.944-0.001,7.916-0.758,11.306-2.295
				c6.083-2.755,10.108-7.763,11.334-14.099c1.946-10.055-1.961-18.788-5.74-27.234c-5.189-11.595-9.286-20.752-0.399-33.565
				c1.694-2.442,3.842-4.839,6.487-7.258c4.446,1.674,9.257,2.598,14.281,2.598c22.403,0,40.629-18.226,40.629-40.63
				c0-0.416-0.019-0.828-0.032-1.24c9.928-10.136,16.018-21.588,18.556-34.903c2.78-14.595,5.511-29.801,7.136-43.622h22.857V335.25
				z"/>
			<path d="M268.364,144.318c4.43,0,8.019-3.589,8.019-8.019v-7.352c0-4.43-3.589-8.019-8.019-8.019
				c-4.43,0-8.019,3.589-8.019,8.019v7.352C260.344,140.727,263.935,144.318,268.364,144.318z"/>
			<path d="M489.656,47.479H22.343C10.023,47.479,0,57.502,0,69.822V366.37c0,12.319,10.023,22.343,22.343,22.343h176.261v33.752
				h-20.857c-8.709,0-15.794,7.085-15.794,15.795v10.466c0,8.709,7.085,15.794,15.794,15.794h156.511
				c8.71,0,15.795-7.086,15.795-15.794V438.26c0-8.71-7.085-15.795-15.795-15.795h-20.857v-33.752h176.255
				c12.32,0,22.343-10.023,22.343-22.343V69.822C512,57.502,501.977,47.479,489.656,47.479z M334.014,438.503v9.977H177.992v-9.977
				H334.014z M214.643,422.464v-33.752h82.72v33.752H214.643z M489.657,372.674H22.343c-3.476,0-6.304-2.828-6.304-6.304V69.822
				c0-3.476,2.829-6.303,6.304-6.303h467.313c3.476,0,6.304,2.828,6.304,6.303V366.37h0.001
				C495.961,369.846,493.132,372.674,489.657,372.674z"/>
			<path d="M415.791,180.709c0,4.43,3.589,8.019,8.019,8.019h13.713c4.429,0,8.019-3.589,8.019-8.019
				c0-4.43-3.591-8.019-8.019-8.019h-13.713C419.382,172.689,415.791,176.279,415.791,180.709z"/>
			<path d="M171.107,187.49c6.687,0,12.778-2.605,17.309-6.853c4.531,4.249,10.622,6.853,17.309,6.853
				c13.966,0,25.329-11.363,25.329-25.329c0-4.43-3.589-8.019-8.019-8.019c-4.43,0-8.019,3.589-8.019,8.019
				c0,5.123-4.167,9.291-9.291,9.291c-5.122,0-9.29-4.168-9.29-9.291c0-4.43-3.589-8.019-8.019-8.019
				c-4.43,0-8.019,3.589-8.019,8.019c0,5.123-4.167,9.291-9.29,9.291c-5.122,0-9.29-4.168-9.29-9.291
				c0-4.43-3.589-8.019-8.019-8.019c-4.43,0-8.019,3.589-8.019,8.019C145.78,176.127,157.142,187.49,171.107,187.49z"/>
			<path d="M108.469,144.318c4.43,0,8.019-3.589,8.019-8.019v-7.352c0-4.43-3.589-8.019-8.019-8.019
				c-4.429,0-8.019,3.589-8.019,8.019v7.352C100.449,140.727,104.04,144.318,108.469,144.318z"/>
			<path d="M369.391,227.108c-4.43,0-8.019,3.589-8.019,8.019v13.713c0,4.43,3.589,8.019,8.019,8.019
				c4.429,0,8.019-3.589,8.019-8.019v-13.713C377.411,230.699,373.82,227.108,369.391,227.108z"/>
		</g>
	</g>
</g>
</svg>